<svg width="264" height="89" viewBox="0 0 264 89" fill="none" xmlns="http://www.w3.org/2000/svg">
<path d="M72.495 17.1197C79.871 25.0071 84.2354 35.7084 83.8454 47.3529C83.0675 70.6446 63.554 88.8931 40.2628 88.1118C28.9652 87.7352 18.8567 82.9501 11.5296 75.4667C11.3048 75.2364 11.0811 75.0042 10.8597 74.7672C10.6382 74.5302 10.4212 74.2917 10.2065 74.0518C-3.25438 58.9042 -2.25306 35.6966 12.6323 21.7759C13.4362 21.0242 14.2635 20.315 15.1126 19.6496C8.72005 26.1047 4.6512 34.8931 4.32274 44.6902C3.63176 65.3212 19.7947 82.6039 40.4242 83.293C50.2428 83.6234 59.3041 80.1359 66.1765 74.1662C73.7474 67.5907 78.6664 58.0044 79.0271 47.1919C79.3726 36.876 75.5044 27.3977 68.9726 20.4135C68.0621 19.44 68.1136 17.9144 69.0853 17.0057C70.0573 16.0965 71.5844 16.1462 72.495 17.1197Z" fill="white"/>
<path d="M63.4822 43.7922V77.7322L58.7769 81.0465V43.7397C57.0724 43.43 55.483 42.7954 54.0718 41.9037V35.5356C55.6353 39.6374 59.1497 42.7639 63.4822 43.7922Z" fill="white"/>
<path d="M75.2452 44.2381V69.9071L70.5398 76.2248V44.1855C68.8353 43.8759 67.246 43.2412 65.8347 42.3496V35.9814C67.3982 40.0833 70.9127 43.2097 75.2452 44.2381Z" fill="white"/>
<path d="M42.3507 18.7638C40.7877 22.8656 37.2731 25.9921 32.9402 27.0204V83.256L39.095 83.1405L37.6453 26.9679C39.3501 26.6583 40.9398 26.0236 42.3507 25.1319C43.7619 26.0236 45.3512 26.6583 47.0561 26.9679V83.256L51.7612 82.7035V27.0204C47.4283 25.9921 43.9141 22.8656 42.3507 18.7638Z" fill="white"/>
<path d="M30.5488 35.9818V42.3499C29.1376 43.2415 27.5479 43.8763 25.8434 44.1858V81.0468L21.1379 78.5609V44.2384C25.4712 43.2101 28.9854 40.0836 30.5488 35.9818Z" fill="white"/>
<path d="M18.7857 35.9818V42.3499C17.3749 43.2415 15.7852 43.8763 14.0803 44.1858V75.8255L9.79663 71.9325L9.37524 44.2384C13.7081 43.2101 17.2227 40.0836 18.7857 35.9818Z" fill="white"/>
<path d="M67.5986 16.3553C63.0486 13.2204 61.9019 13.2204 57.3523 16.3553C60.4873 11.8055 60.4873 10.6586 57.3523 6.10913C61.9019 9.24408 63.0486 9.24408 67.5986 6.10913C64.4636 10.6586 64.4636 11.8055 67.5986 16.3553Z" fill="white"/>
<path d="M36.6014 3.7059C34.1933 4.39798 33.6323 4.95895 32.9402 7.36667C32.2485 4.95895 31.6871 4.39798 29.2798 3.7059C31.6871 3.01379 32.2485 2.45276 32.9402 0.0450745C33.6323 2.45276 34.1933 3.01379 36.6014 3.7059Z" fill="white"/>
<path d="M46.2095 13.0652C43.6714 13.7947 43.0801 14.3861 42.3506 16.9241C41.6211 14.3861 41.0297 13.7947 38.4917 13.0652C41.0297 12.3357 41.6211 11.7444 42.3506 9.20633C43.0801 11.7444 43.6714 12.3357 46.2095 13.0652Z" fill="white"/>
<path d="M29.9466 18.7638C25.0556 19.1449 24.7472 19.4537 24.3661 24.3443C23.985 19.4537 23.6762 19.1449 18.7856 18.7638C23.6762 18.3828 23.985 18.0739 24.3661 13.1834C24.7472 18.0739 25.0556 18.3828 29.9466 18.7638Z" fill="white"/>
<path d="M67.8149 27.0853C61.9682 27.5407 61.599 27.9099 61.1435 33.7566C60.688 27.9099 60.3188 27.5407 54.4722 27.0853C60.3188 26.6298 60.688 26.2606 61.1435 20.4139C61.599 26.2606 61.9682 26.6298 67.8149 27.0853Z" fill="white"/>
<path d="M234.406 59.8703V60.4269H223.091V59.871C226.046 59.871 226.455 57.1094 226.455 55.022V54.9734L226.453 39.8547C226.453 36.7072 222.711 36.6605 222.711 36.6605V36.0851L231.193 33.9229L231.042 55.0212C231.042 57.109 231.45 59.8703 234.406 59.8703ZM226.296 26.5805C225.743 26.0203 225.465 25.3441 225.465 24.5531C225.465 23.7626 225.742 23.082 226.296 22.5125C226.85 21.9421 227.534 21.6562 228.347 21.6562C229.141 21.6562 229.821 21.9373 230.385 22.4984C230.948 23.059 231.23 23.7444 231.23 24.5531C231.23 25.3441 230.948 26.0199 230.385 26.5805C229.821 27.1408 229.141 27.4211 228.347 27.4211C227.534 27.4211 226.85 27.1408 226.296 26.5805Z" fill="white"/>
<path d="M167.286 59.8707V60.4269H155.971V59.8707C158.926 59.8707 159.334 57.1094 159.334 55.0213V54.9731L159.333 27.587C159.333 24.4399 155.591 24.3928 155.591 24.3928V23.8177L164.072 21.6559L163.921 55.0213C163.921 57.1094 164.329 59.8707 167.286 59.8707Z" fill="white"/>
<path d="M263.591 46.8476C263.591 50.5247 262.427 53.7211 260.099 56.4373C257.771 59.1531 254.759 60.4269 251.063 60.4269C247.515 60.4269 244.513 59.2086 242.055 56.6028C239.598 53.9977 238.37 50.7276 238.37 46.7917C238.37 43.1157 239.538 40.0058 241.876 37.4656C244.213 34.9253 246.993 33.6004 250.67 33.6004C254.328 33.6004 257.586 34.8557 259.988 37.2575C262.39 39.66 263.591 42.8568 263.591 46.8476ZM258.436 48.5936C258.436 45.397 257.821 42.1802 256.396 39.353C254.97 36.5262 252.79 34.6768 250.087 34.6768C248.624 34.6768 247.357 35.1579 246.283 36.1181C244.431 37.8 243.525 41.3415 243.525 45.4619C243.525 48.7505 244.273 52.2299 245.763 55.0745C247.253 57.9206 249.319 59.3023 251.966 59.3023C254.039 59.3023 255.763 57.894 256.884 55.9911C258.003 54.0881 258.436 51.6796 258.436 48.5936Z" fill="white"/>
<path d="M108.399 53.4382V54.7746C108.399 56.8612 108.74 58.2032 109.425 58.8061C110.106 59.4048 110.889 59.76 113.198 59.871V60.4269H97.8252V59.871C100.135 59.76 100.917 59.4048 101.599 58.8061C102.283 58.2032 102.624 56.8623 102.624 54.7746V28.5238C102.624 26.4372 102.283 25.0956 101.599 24.4928C100.917 23.8944 100.135 23.5388 97.8252 23.4278V22.872H104.463C107.736 22.8683 110.572 22.2088 113.969 22.2088C123.899 22.2088 127.605 26.2865 127.648 32.4461C127.73 44.1847 108.448 44.8612 108.399 53.4382ZM108.398 26.612V49.7929C111.691 44.1332 121.467 41.1712 121.467 32.2887C121.467 28.2695 120.07 23.2719 113.815 23.2719C109.767 23.2719 108.398 25.183 108.398 26.612Z" fill="white"/>
<path d="M193.975 57.3931C193.975 57.5071 193.941 57.6208 193.875 57.7137C191.558 60.9868 186.056 61.499 185.306 57.3586C185.229 56.9335 184.738 56.7472 184.407 57.0253C180.579 60.2436 171.362 63.9696 170.634 54.4703C170.632 54.4473 170.631 54.4232 170.631 54.4C170.678 47.1164 185.138 45.1564 185.138 38.7506C185.138 35.9485 182.871 34.518 181.057 34.518C176.705 34.518 175.294 39.8667 178.743 40.2804C179.102 40.3233 179.326 40.715 179.169 41.0398C178.365 42.6962 175.822 43.3375 174.102 42.1744C174.07 42.1522 174.038 42.1263 174.01 42.0989C169.944 38.184 174.704 33.0298 181.024 33.5279C183.598 33.5275 189.101 34.7869 189.058 38.5917C189.014 42.3888 182.807 45.2116 179.979 46.9894C170.603 52.5732 178.621 61.6893 185.039 54.2714C185.109 54.1896 185.155 54.0884 185.171 53.9815C185.587 51.1875 183.835 37.2183 186.476 35.3546C186.619 35.2539 186.813 35.2194 186.969 35.2979C192.437 38.0441 189.271 50.7946 189.768 54.9961C189.767 58.2825 191.9 57.6075 193.169 56.9113C193.532 56.7121 193.975 56.9791 193.975 57.3931Z" fill="white"/>
<path d="M218.766 53.9884C218.285 55.1256 215.631 60.4269 207.719 60.4269C204.681 60.4269 196.418 58.3718 196.418 46.7867C196.418 35.6933 205.244 33.6059 208.824 33.6059C213.078 33.6059 215.262 34.7572 216.506 36.3032C218.239 38.4554 217.536 41.0767 215.973 42.174C214.029 43.5404 210.973 42.5369 210.657 40.345C214.95 40.5527 213.53 34.481 208.807 34.732C203.779 34.732 201.153 41.3959 201.153 46.2984C201.153 52.7935 204.744 58.1414 209.876 58.1414C214.368 58.1414 217.35 55.136 218.136 53.4611L218.766 53.9884Z" fill="white"/>
<path d="M152.388 57.3931C152.388 57.5071 152.355 57.6208 152.289 57.7137C149.972 60.9868 144.47 61.499 143.72 57.3586C143.643 56.9335 143.151 56.7472 142.82 57.0253C138.992 60.2436 129.776 63.9696 129.048 54.4703C129.046 54.4473 129.045 54.4232 129.045 54.4C129.092 47.1164 143.552 45.1564 143.552 38.7506C143.552 35.9485 141.284 34.518 139.471 34.518C135.119 34.518 133.708 39.8667 137.157 40.2804C137.515 40.3233 137.74 40.715 137.582 41.0398C136.779 42.6962 134.235 43.3375 132.516 42.1744C132.483 42.1522 132.451 42.1263 132.423 42.0989C128.358 38.184 133.117 33.0298 139.437 33.5279C142.012 33.5275 147.515 34.7869 147.471 38.5917C147.428 42.3888 141.221 45.2116 138.393 46.9894C129.017 52.5732 137.035 61.6893 143.452 54.2714C143.523 54.1896 143.568 54.0884 143.584 53.9815C144 51.1875 142.249 37.2183 144.89 35.3546C145.032 35.2539 145.227 35.2194 145.383 35.2979C150.851 38.0441 147.685 50.7946 148.181 54.9961C148.181 58.2825 150.314 57.6075 151.583 56.9113C151.946 56.7121 152.388 56.9791 152.388 57.3931Z" fill="white"/>
<path d="M126.684 71.9947H125.099C125.005 71.5387 124.841 71.1382 124.607 70.793C124.376 70.4478 124.095 70.158 123.763 69.9237C123.435 69.685 123.07 69.5061 122.67 69.3867C122.269 69.2674 121.852 69.2078 121.417 69.2078C120.624 69.2078 119.906 69.408 119.263 69.8086C118.624 70.2092 118.114 70.7994 117.735 71.5792C117.36 72.359 117.173 73.3157 117.173 74.4492C117.173 75.5828 117.36 76.5394 117.735 77.3193C118.114 78.0991 118.624 78.6893 119.263 79.0899C119.906 79.4904 120.624 79.6907 121.417 79.6907C121.852 79.6907 122.269 79.6311 122.67 79.5117C123.07 79.3924 123.435 79.2156 123.763 78.9812C124.095 78.7426 124.376 78.4507 124.607 78.1055C124.841 77.7561 125.005 77.3555 125.099 76.9038H126.684C126.565 77.5728 126.347 78.1715 126.032 78.6999C125.717 79.2284 125.325 79.6779 124.856 80.0487C124.387 80.4151 123.861 80.6943 123.277 80.886C122.698 81.0778 122.077 81.1737 121.417 81.1737C120.3 81.1737 119.308 80.9009 118.438 80.3555C117.569 79.81 116.885 79.0345 116.386 78.0288C115.888 77.0231 115.639 75.8299 115.639 74.4492C115.639 73.0686 115.888 71.8754 116.386 70.8697C116.885 69.864 117.569 69.0884 118.438 68.543C119.308 67.9975 120.3 67.7248 121.417 67.7248C122.077 67.7248 122.698 67.8207 123.277 68.0124C123.861 68.2042 124.387 68.4855 124.856 68.8562C125.325 69.2227 125.717 69.6701 126.032 70.1985C126.347 70.7227 126.565 71.3214 126.684 71.9947ZM129.246 80.9947V67.9038H133.669C134.692 67.9038 135.531 68.0785 136.187 68.4279C136.844 68.7731 137.329 69.2482 137.645 69.8534C137.96 70.4585 138.118 71.1467 138.118 71.918C138.118 72.6893 137.96 73.3732 137.645 73.9698C137.329 74.5664 136.846 75.0352 136.194 75.3761C135.542 75.7127 134.709 75.8811 133.694 75.8811H130.115V74.4492H133.643C134.342 74.4492 134.905 74.347 135.331 74.1424C135.761 73.9379 136.072 73.6481 136.264 73.2731C136.46 72.8938 136.558 72.4421 136.558 71.918C136.558 71.3938 136.46 70.9357 136.264 70.5437C136.068 70.1517 135.755 69.8491 135.324 69.636C134.894 69.4187 134.325 69.31 133.618 69.31H130.831V80.9947H129.246ZM135.408 75.114L138.629 80.9947H136.788L133.618 75.114H135.408ZM142.345 67.9038V80.9947H140.759V67.9038H142.345ZM152.682 71.1765C152.605 70.5288 152.294 70.0259 151.749 69.668C151.203 69.31 150.534 69.1311 149.742 69.1311C149.162 69.1311 148.655 69.2248 148.22 69.4123C147.79 69.5998 147.453 69.8576 147.21 70.1857C146.972 70.5139 146.853 70.8867 146.853 71.3043C146.853 71.6538 146.936 71.9542 147.102 72.2056C147.272 72.4528 147.49 72.6595 147.754 72.8257C148.018 72.9876 148.295 73.1218 148.585 73.2284C148.875 73.3306 149.141 73.4137 149.384 73.4776L150.713 73.8356C151.054 73.9251 151.433 74.0487 151.851 74.2063C152.273 74.364 152.676 74.5792 153.059 74.8519C153.447 75.1204 153.767 75.4656 154.018 75.8874C154.269 76.3093 154.395 76.8271 154.395 77.4407C154.395 78.1481 154.21 78.7873 153.839 79.3583C153.473 79.9293 152.936 80.3832 152.228 80.7198C151.525 81.0565 150.671 81.2248 149.665 81.2248C148.728 81.2248 147.916 81.0735 147.23 80.771C146.548 80.4684 146.011 80.0465 145.619 79.5053C145.231 78.9642 145.012 78.3356 144.96 77.6197H146.597C146.639 78.114 146.806 78.5231 147.095 78.847C147.389 79.1666 147.76 79.4052 148.208 79.5629C148.659 79.7163 149.145 79.793 149.665 79.793C150.27 79.793 150.813 79.695 151.295 79.499C151.777 79.2987 152.158 79.0217 152.439 78.668C152.72 78.31 152.861 77.8924 152.861 77.4151C152.861 76.9805 152.74 76.6268 152.497 76.3541C152.254 76.0813 151.934 75.8597 151.538 75.6893C151.142 75.5188 150.713 75.3697 150.253 75.2418L148.642 74.7816C147.62 74.4876 146.81 74.0678 146.213 73.5224C145.617 72.9769 145.318 72.2632 145.318 71.3811C145.318 70.6481 145.517 70.0089 145.913 69.4634C146.313 68.9137 146.85 68.4876 147.524 68.185C148.201 67.8782 148.958 67.7248 149.793 67.7248C150.637 67.7248 151.387 67.8761 152.043 68.1786C152.699 68.4769 153.219 68.886 153.603 69.4059C153.99 69.9258 154.195 70.516 154.216 71.1765H152.682ZM155.944 69.31V67.9038H165.762V69.31H161.645V80.9947H160.06V69.31H155.944ZM166.334 80.9947H164.672L169.479 67.9038H171.115L175.922 80.9947H174.26L170.348 69.9748H170.246L166.334 80.9947ZM166.948 75.8811H173.646V77.2873H166.948V75.8811ZM179.546 67.9038V80.9947H177.961V67.9038H179.546ZM189.884 71.1765C189.807 70.5288 189.496 70.0259 188.951 69.668C188.405 69.31 187.736 69.1311 186.944 69.1311C186.364 69.1311 185.857 69.2248 185.422 69.4123C184.992 69.5998 184.655 69.8576 184.412 70.1857C184.174 70.5139 184.054 70.8867 184.054 71.3043C184.054 71.6538 184.137 71.9542 184.304 72.2056C184.474 72.4528 184.691 72.6595 184.956 72.8257C185.22 72.9876 185.497 73.1218 185.787 73.2284C186.076 73.3306 186.343 73.4137 186.586 73.4776L187.915 73.8356C188.256 73.9251 188.635 74.0487 189.053 74.2063C189.475 74.364 189.877 74.5792 190.261 74.8519C190.649 75.1204 190.968 75.4656 191.22 75.8874C191.471 76.3093 191.597 76.8271 191.597 77.4407C191.597 78.1481 191.412 78.7873 191.041 79.3583C190.674 79.9293 190.137 80.3832 189.43 80.7198C188.727 81.0565 187.872 81.2248 186.867 81.2248C185.929 81.2248 185.118 81.0735 184.431 80.771C183.75 80.4684 183.213 80.0465 182.821 79.5053C182.433 78.9642 182.213 78.3356 182.162 77.6197H183.799C183.841 78.114 184.007 78.5231 184.297 78.847C184.591 79.1666 184.962 79.4052 185.409 79.5629C185.861 79.7163 186.347 79.793 186.867 79.793C187.472 79.793 188.015 79.695 188.497 79.499C188.978 79.2987 189.36 79.0217 189.641 78.668C189.922 78.31 190.063 77.8924 190.063 77.4151C190.063 76.9805 189.941 76.6268 189.698 76.3541C189.456 76.0813 189.136 75.8597 188.74 75.6893C188.343 75.5188 187.915 75.3697 187.455 75.2418L185.844 74.7816C184.821 74.4876 184.012 74.0678 183.415 73.5224C182.819 72.9769 182.52 72.2632 182.52 71.3811C182.52 70.6481 182.718 70.0089 183.115 69.4634C183.515 68.9137 184.052 68.4876 184.725 68.185C185.403 67.8782 186.159 67.7248 186.995 67.7248C187.838 67.7248 188.588 67.8761 189.245 68.1786C189.901 68.4769 190.421 68.886 190.804 69.4059C191.192 69.9258 191.397 70.516 191.418 71.1765H189.884ZM199.803 80.9947H198.141L202.948 67.9038H204.584L209.391 80.9947H207.729L203.817 69.9748H203.715L199.803 80.9947ZM200.416 75.8811H207.115V77.2873H200.416V75.8811ZM211.43 80.9947V67.9038H213.015V79.5884H219.1V80.9947H211.43ZM219.619 67.9038L223.506 78.9237H223.659L227.545 67.9038H229.207L224.401 80.9947H222.764L217.957 67.9038H219.619ZM231.246 80.9947V67.9038H239.147V69.31H232.832V73.7333H238.738V75.1396H232.832V79.5884H239.249V80.9947H231.246ZM249.163 71.1765C249.087 70.5288 248.776 70.0259 248.23 69.668C247.685 69.31 247.016 69.1311 246.223 69.1311C245.643 69.1311 245.136 69.2248 244.702 69.4123C244.271 69.5998 243.935 69.8576 243.692 70.1857C243.453 70.5139 243.334 70.8867 243.334 71.3043C243.334 71.6538 243.417 71.9542 243.583 72.2056C243.754 72.4528 243.971 72.6595 244.235 72.8257C244.499 72.9876 244.776 73.1218 245.066 73.2284C245.356 73.3306 245.622 73.4137 245.865 73.4776L247.195 73.8356C247.535 73.9251 247.915 74.0487 248.332 74.2063C248.754 74.364 249.157 74.5792 249.54 74.8519C249.928 75.1204 250.248 75.4656 250.499 75.8874C250.751 76.3093 250.876 76.8271 250.876 77.4407C250.876 78.1481 250.691 78.7873 250.32 79.3583C249.954 79.9293 249.417 80.3832 248.709 80.7198C248.006 81.0565 247.152 81.2248 246.146 81.2248C245.209 81.2248 244.397 81.0735 243.711 80.771C243.029 80.4684 242.492 80.0465 242.1 79.5053C241.712 78.9642 241.493 78.3356 241.442 77.6197H243.078C243.121 78.114 243.287 78.5231 243.577 78.847C243.871 79.1666 244.241 79.4052 244.689 79.5629C245.141 79.7163 245.626 79.793 246.146 79.793C246.751 79.793 247.295 79.695 247.776 79.499C248.258 79.2987 248.639 79.0217 248.92 78.668C249.202 78.31 249.342 77.8924 249.342 77.4151C249.342 76.9805 249.221 76.6268 248.978 76.3541C248.735 76.0813 248.415 75.8597 248.019 75.6893C247.623 75.5188 247.195 75.3697 246.734 75.2418L245.124 74.7816C244.101 74.4876 243.291 74.0678 242.695 73.5224C242.098 72.9769 241.8 72.2632 241.8 71.3811C241.8 70.6481 241.998 70.0089 242.394 69.4634C242.795 68.9137 243.332 68.4876 244.005 68.185C244.683 67.8782 245.439 67.7248 246.274 67.7248C247.118 67.7248 247.868 67.8761 248.524 68.1786C249.18 68.4769 249.7 68.886 250.084 69.4059C250.472 69.9258 250.676 70.516 250.697 71.1765H249.163Z" fill="white"/>
</svg>
